HIERARCHY
ROOT root
{
	OFFSET 0.000000 0.000000 0.000000
	CHANNELS 6 Xposition Yposition Zposition Zrotation Yrotation Xrotation
	JOINT lhip
	{
		OFFSET 0.058581 -0.082280 -0.017664
		CHANNELS 3 Zrotation Yrotation Xrotation
		JOINT lknee
		{
			OFFSET 0.043451 -0.386469 0.008037
			CHANNELS 3 Zrotation Yrotation Xrotation
			JOINT lankle
			{
				OFFSET -0.014790 -0.426874 -0.037428
				CHANNELS 3 Zrotation Yrotation Xrotation
				JOINT ltoe
				{
					OFFSET 0.041054 -0.060286 0.122042
					CHANNELS 3 Zrotation Yrotation Xrotation
					End Site
					{
						OFFSET 0.000000 0.000000 0.000000
					}
				}
			}
		}
	}
	JOINT rhip
	{
		OFFSET -0.060310 -0.090513 -0.013543
		CHANNELS 3 Zrotation Yrotation Xrotation
		JOINT rknee
		{
			OFFSET -0.043257 -0.383688 -0.004843
			CHANNELS 3 Zrotation Yrotation Xrotation
			JOINT rankle
			{
				OFFSET 0.019056 -0.420046 -0.034562
				CHANNELS 3 Zrotation Yrotation Xrotation
				JOINT rtoe
				{
					OFFSET -0.034840 -0.062106 0.130323
					CHANNELS 3 Zrotation Yrotation Xrotation
					End Site
					{
						OFFSET 0.000000 0.000000 0.000000
					}
				}
			}
		}
	}
	JOINT lowerback
	{
		OFFSET 0.004439 0.124404 -0.038385
		CHANNELS 3 Zrotation Yrotation Xrotation
		JOINT upperback
		{
			OFFSET 0.004488 0.137956 0.026820
			CHANNELS 3 Zrotation Yrotation Xrotation
			JOINT chest
			{
				OFFSET -0.002265 0.056032 0.002855
				CHANNELS 3 Zrotation Yrotation Xrotation
				JOINT lowerneck
				{
					OFFSET -0.013390 0.211636 -0.033468
					CHANNELS 3 Zrotation Yrotation Xrotation
					JOINT upperneck
					{
						OFFSET 0.010113 0.088937 0.050410
						CHANNELS 3 Zrotation Yrotation Xrotation
						End Site
						{
							OFFSET 0.000000 0.000000 0.000000
						}
					}
				}
				JOINT lclavicle
				{
					OFFSET 0.071702 0.114000 -0.018898
					CHANNELS 3 Zrotation Yrotation Xrotation
					JOINT lshoulder
					{
						OFFSET 0.122921 0.045205 -0.019046
						CHANNELS 3 Zrotation Yrotation Xrotation
						JOINT lelbow
						{
							OFFSET 0.255332 -0.015649 -0.022946
							CHANNELS 3 Zrotation Yrotation Xrotation
							JOINT lwrist
							{
								OFFSET 0.265709 0.012698 -0.007375
								CHANNELS 3 Zrotation Yrotation Xrotation
								End Site
								{
									OFFSET 0.000000 0.000000 0.000000
								}
							}
						}
					}
				}
				JOINT rclavicle
				{
					OFFSET -0.082954 0.112472 -0.023707
					CHANNELS 3 Zrotation Yrotation Xrotation
					JOINT rshoulder
					{
						OFFSET -0.113228 0.046853 -0.008472
						CHANNELS 3 Zrotation Yrotation Xrotation
						JOINT relbow
						{
							OFFSET -0.260127 -0.014369 -0.031269
							CHANNELS 3 Zrotation Yrotation Xrotation
							JOINT rwrist
							{
								OFFSET -0.269108 0.006794 -0.006027
								CHANNELS 3 Zrotation Yrotation Xrotation
								End Site
								{
									OFFSET 0.000000 0.000000 0.000000
								}
							}
						}
					}
				}
			}
		}
	}
}
MOTION
Frames: 16
Frame Time: 0.033333
0.919636 0.455332 0.922910 77.915092 -1.725923 91.332275 11.430097 6.165809 -43.380697 -11.221238 15.189700 38.790887 -0.615474 10.073265 -1.134223 0.000000 -0.000000 0.000000 -16.203566 -9.614212 18.247411 2.691571 12.370796 11.499481 7.125098 -4.765056 -30.107091 0.000000 -0.000000 0.000000 -1.364901 13.511391 4.658585 -3.862427 -2.085474 -5.046671 -2.445238 4.805132 4.884284 2.732376 6.149451 -10.802222 -0.253455 0.797071 3.546139 -17.910470 9.579064 -6.212076 -20.347135 11.576495 33.731369 -101.674149 -44.073511 124.113267 50.474873 -29.894715 -20.256468 15.705433 -4.611826 2.770327 30.159370 -21.793213 26.371099 89.201045 39.636691 105.627272 -43.811366 24.272594 -12.584861 
0.918103 0.454623 0.921809 77.508588 -1.728840 90.930080 11.448355 6.340134 -43.118087 -10.982185 15.124208 38.985575 -0.444550 10.260510 -0.850746 0.000000 -0.000000 0.000000 -16.127226 -9.496560 18.185049 2.493974 12.696294 11.998647 6.982066 -4.886303 -30.472719 0.000000 -0.000000 0.000000 -1.163597 13.319116 4.992265 -3.831206 -2.142433 -4.838202 -2.534967 4.903612 4.805792 2.799786 6.371797 -10.718322 -0.368071 1.068331 4.077325 -18.718831 10.021130 -6.619062 -19.589481 11.910362 33.669317 -101.931478 -44.421350 124.537365 50.837614 -30.116069 -20.092461 16.428687 -4.498349 2.728263 29.502853 -21.427357 26.993283 89.341352 39.874663 105.693601 -44.192427 24.368678 -12.618148 
0.916909 0.453804 0.921634 77.398371 -1.804560 90.549296 11.282554 6.260780 -42.828441 -10.762755 14.966148 39.011599 -0.167214 10.531978 -0.480720 0.000000 -0.000000 0.000000 -15.929411 -9.330811 18.184226 2.230949 12.744047 12.524522 6.899316 -5.269759 -30.805571 0.000000 -0.000000 0.000000 -1.085878 13.048769 5.198566 -3.748005 -2.399411 -4.989322 -2.535450 4.855135 5.158253 2.710525 6.429941 -10.207680 -0.333752 1.595487 3.908399 -19.082207 10.556550 -7.162345 -19.081435 12.305276 33.583870 -102.250879 -44.411433 124.890077 50.500303 -30.118012 -19.718294 16.715950 -4.692493 2.322928 28.818743 -20.903564 27.322950 89.844685 39.861523 106.030093 -43.799296 24.360800 -12.435452 
0.916400 0.452887 0.922080 77.464245 -1.925752 90.251854 11.054203 5.982081 -42.570883 -10.592067 14.798698 38.968093 0.142814 10.801340 -0.092697 0.000000 -0.000000 0.000000 -15.891363 -9.273462 18.417016 2.070386 12.759339 12.659571 6.854448 -5.537729 -30.970208 0.000000 -0.000000 0.000000 -1.022626 12.854174 5.139733 -3.693407 -2.760729 -5.297700 -2.516695 4.675267 5.734413 2.499147 6.240198 -9.224719 -0.153959 2.339824 3.311071 -19.118878 10.903908 -7.511494 -18.858531 12.732242 33.413252 -102.513290 -44.253702 125.184631 49.775490 -29.960105 -19.273308 16.547245 -5.080014 1.763615 28.370370 -20.334617 27.156603 90.405509 39.510747 106.401912 -42.703851 24.290179 -12.013779 
0.916055 0.452136 0.922787 77.341716 -1.986088 90.055897 10.960189 5.838375 -42.322331 -10.423325 14.772434 38.908289 0.373352 11.007806 0.258831 0.000000 -0.000000 0.000000 -15.979030 -9.228235 18.548868 2.070446 12.829494 12.710368 6.821535 -5.541973 -31.011340 0.000000 -0.000000 0.000000 -0.851873 12.776027 5.004687 -3.661676 -2.943901 -5.697324 -2.488425 4.483420 6.285574 2.235954 6.024592 -8.194311 -0.054269 3.051891 2.827520 -19.213542 10.977796 -7.724708 -18.737148 13.080852 33.311580 -102.546779 -44.154708 125.166112 49.384653 -29.801320 -19.069795 16.353711 -5.424934 1.213622 27.906505 -19.927446 26.911655 90.969569 38.954984 106.670542 -41.775965 24.226788 -11.679906 
0.915805 0.451427 0.923401 76.973413 -1.942396 89.907029 11.031645 5.986155 -42.053598 -10.277411 14.807926 38.917367 0.480488 11.118114 0.444789 0.000000 -0.000000 0.000000 -16.054607 -9.246341 18.556686 2.066293 12.947471 12.770281 6.821799 -5.366298 -30.998892 0.000000 -0.000000 0.000000 -0.664314 12.743647 4.793594 -3.555129 -2.907731 -5.879171 -2.403392 4.368768 6.590689 2.002356 5.975848 -7.352420 -0.143618 3.549975 2.637556 -19.471514 10.861521 -7.897847 -18.693923 13.266287 33.285912 -102.387349 -44.167100 124.960784 49.353892 -29.688104 -19.058754 16.397794 -5.568373 0.885886 27.288507 -19.796384 26.883697 91.569578 38.518575 106.969391 -41.456859 24.268945 -11.576532 
0.915643 0.450596 0.923823 76.449516 -1.844786 89.715189 11.215337 6.337327 -41.719208 -10.149642 14.913517 39.007668 0.511871 11.133450 0.528215 0.000000 -0.000000 0.000000 -16.187648 -9.322647 18.605075 2.065284 13.145392 12.781373 6.865491 -5.002189 -30.948943 0.000000 -0.000000 0.000000 -0.539036 12.731213 4.568124 -3.383584 -2.782283 -5.756911 -2.263352 4.313711 6.643159 1.902692 6.216916 -6.713867 -0.379075 3.832624 2.614300 -19.707501 10.692577 -8.044240 -18.700708 13.322314 33.278634 -102.187445 -44.213384 124.722474 49.616074 -29.737229 -19.082206 16.621490 -5.472103 0.855435 26.606424 -19.826364 27.062386 92.098478 38.372969 107.180080 -41.620917 24.401363 -11.642701 
0.915447 0.449902 0.923985 75.838510 -1.753444 89.459790 11.420431 6.740741 -41.339054 -10.010211 15.066220 39.136272 0.523226 11.197892 0.570227 0.000000 -0.000000 0.000000 -16.402047 -9.362411 18.685864 2.106386 13.430115 12.813405 6.909150 -4.552280 -30.920490 0.000000 -0.000000 0.000000 -0.415156 12.783879 4.457438 -3.221112 -2.691934 -5.497211 -2.148988 4.302048 6.574711 1.908867 6.608326 -6.164475 -0.619744 4.039179 2.515817 -19.857062 10.488983 -8.113292 -18.671930 13.335555 33.244731 -102.020978 -44.190493 124.563617 49.852483 -29.772739 -19.136036 16.848667 -5.248321 0.953508 26.061570 -19.919242 27.219023 92.526323 38.394672 107.358065 -41.943161 24.548498 -11.708485 
0.914615 0.450061 0.923690 74.988207 -1.786085 89.207228 11.548985 7.138272 -40.944159 -9.847497 15.288064 39.205212 0.594836 11.421430 0.596130 0.000000 -0.000000 0.000000 -16.719216 -9.073424 18.486984 2.216749 13.662411 13.112544 6.871205 -4.189373 -31.005899 0.000000 -0.000000 0.000000 -0.180007 12.896723 4.795217 -3.249557 -2.586482 -5.665350 -2.121109 4.335436 6.660167 1.988233 7.104096 -5.739706 -0.829931 4.282285 2.337685 -19.874622 10.323243 -8.275329 -18.778317 13.382113 33.257852 -101.797280 -44.147420 124.544447 50.046158 -29.639584 -19.239749 16.879049 -4.965894 1.019328 25.852263 -19.822387 27.256424 92.915312 38.313788 107.659520 -42.285545 24.517598 -11.795857 
0.914292 0.449994 0.923444 74.358482 -1.779705 88.984093 11.693617 7.445600 -40.625148 -9.714778 15.415867 39.362288 0.628865 11.581750 0.502427 0.000000 -0.000000 0.000000 -16.920894 -8.953182 18.480966 2.229032 13.899077 13.193931 6.878623 -3.940697 -30.998466 0.000000 -0.000000 0.000000 -0.040729 12.833762 4.896439 -3.207691 -2.613733 -5.681801 -2.119375 4.394779 6.765666 2.064424 7.521273 -5.359047 -0.885891 4.646950 2.186688 -19.892212 10.191454 -8.383609 -18.867747 13.441862 33.238839 -101.532637 -44.058009 124.430298 50.435048 -29.436312 -19.349765 16.823214 -4.754031 1.089067 25.845244 -19.560425 27.169277 93.141451 38.120848 107.792813 -42.954525 24.548518 -11.889241 
0.914243 0.449739 0.923546 73.721090 -1.753723 88.804396 11.877560 7.808275 -40.313442 -9.607134 15.551344 39.565237 0.594641 11.674888 0.297744 0.000000 -0.000000 0.000000 -17.136941 -8.888272 18.528633 2.247545 14.175782 13.118427 6.913946 -3.640690 -30.934835 0.000000 -0.000000 0.000000 0.059003 12.760218 4.884424 -3.154537 -2.639520 -5.697759 -2.133422 4.449887 6.882270 2.195048 7.940610 -4.973913 -0.928694 4.990780 2.056217 -19.959723 10.102800 -8.499877 -18.841565 13.451383 33.261511 -101.305558 -43.914626 124.200530 51.259412 -29.221397 -19.625297 16.798144 -4.621380 1.136817 25.808900 -19.350152 27.051629 93.314782 37.905581 107.742804 -44.236013 24.709356 -12.100654 
0.914484 0.449400 0.923877 73.028190 -1.734475 88.619706 12.120019 8.195492 -39.885878 -9.548753 15.758582 39.660601 0.553496 11.706936 0.115508 0.000000 -0.000000 0.000000 -17.406321 -8.823965 18.626372 2.268166 14.454461 12.937800 6.949682 -3.293531 -30.774620 0.000000 -0.000000 0.000000 0.160712 12.719409 4.898199 -3.136816 -2.617312 -5.778677 -2.124773 4.488590 7.019676 2.299625 8.311734 -4.575888 -0.989348 5.352503 1.921128 -20.076454 10.048564 -8.606288 -18.731061 13.426621 33.295588 -101.270281 -43.915350 124.108361 50.282767 -29.255204 -19.316016 16.822156 -4.580857 1.145311 25.581820 -19.173648 27.111836 93.445717 37.539194 107.822431 -42.465225 24.339943 -11.806687 
0.914747 0.448940 0.924503 72.377117 -1.725132 88.510364 12.360295 8.587230 -39.503153 -9.535501 15.986326 39.752487 0.497992 11.685269 -0.116716 0.000000 -0.000000 0.000000 -17.628673 -8.754522 18.653667 2.276693 14.648033 12.769516 6.986376 -2.942578 -30.629755 0.000000 -0.000000 0.000000 0.142808 12.648194 4.825094 -3.086365 -2.563691 -5.799526 -2.071314 4.490146 7.058027 2.419693 8.743214 -4.299422 -1.112388 5.658108 1.962294 -20.110009 10.054076 -8.684267 -18.804537 13.383482 33.293452 -101.219765 -44.014554 123.964297 50.128630 -29.423449 -19.152125 16.876487 -4.613106 1.196752 25.390145 -19.053530 27.151168 93.623635 37.385118 107.962332 -41.501793 24.119598 -11.727660 
0.915308 0.448573 0.925079 71.640406 -1.796449 88.487189 12.509081 9.039191 -39.101321 -9.506931 16.254944 39.724024 0.405270 11.625292 -0.340447 0.000000 -0.000000 0.000000 -17.909880 -8.637300 18.539569 2.244893 14.802302 12.626255 7.044322 -2.551645 -30.504942 0.000000 -0.000000 0.000000 0.053965 12.626855 4.598259 -3.069498 -2.456593 -5.650678 -2.057837 4.479795 6.988217 2.542574 9.202010 -4.003497 -1.233630 5.883578 1.997543 -20.112424 10.100312 -8.755805 -18.862875 13.285914 33.297150 -101.214779 -44.074441 123.741640 50.731166 -29.639785 -19.141447 16.916239 -4.725624 1.264829 25.349553 -18.987392 27.100592 93.675540 37.362408 107.835511 -41.831699 24.280824 -11.769957 
0.915915 0.448124 0.925509 70.980683 -1.881891 88.423135 12.664435 9.491474 -38.665341 -9.543945 16.502570 39.672524 0.272154 11.554660 -0.517243 0.000000 -0.000000 0.000000 -18.187826 -8.537880 18.527993 2.201070 15.018824 12.434268 7.101967 -2.294932 -30.397552 0.000000 -0.000000 0.000000 -0.020888 12.613416 4.492837 -3.058644 -2.404772 -5.589800 -2.082733 4.471941 6.990001 2.595644 9.564225 -3.735680 -1.301621 6.148368 1.948615 -20.105168 10.133253 -8.755155 -18.793442 13.127025 33.367825 -101.181164 -43.937911 123.725791 50.410294 -29.511592 -19.214951 16.964470 -4.904454 1.299934 25.302960 -18.925842 27.000814 93.749213 37.384532 107.879371 -41.539659 24.227057 -11.674821 
0.916366 0.447528 0.925831 70.496378 -1.936876 88.339540 12.840170 9.884242 -38.294311 -9.635048 16.706825 39.652758 0.133126 11.476191 -0.630712 0.000000 -0.000000 0.000000 -18.391615 -8.491266 18.606598 2.169365 15.232941 12.226150 7.122875 -2.146259 -30.318358 0.000000 -0.000000 0.000000 -0.070624 12.556046 4.531103 -3.045181 -2.441610 -5.654510 -2.115944 4.435965 7.036774 2.600878 9.842061 -3.538875 -1.353617 6.441053 1.900487 -20.058542 10.143445 -8.689585 -18.767650 12.979277 33.428033 -101.072213 -43.750759 123.768307 50.000952 -29.212974 -19.417173 16.962759 -5.073114 1.292549 25.334585 -18.854011 26.886355 93.774765 37.411247 107.969402 -41.227090 24.080849 -11.635137 
